<svg width="997" height="206" viewBox="0 0 997 206" fill="none" xmlns="http://www.w3.org/2000/svg">
<path d="M77.9345 23.103C35.4155 23.103 0.894331 57.0435 0 99.2714L40.3471 59.262L69.6556 67.1924L21.0296 115.413L26.4977 136.068L90.3274 72.7769L104.969 76.7294L108.853 91.3919L45.0232 154.683L65.695 160.293L114.321 112.072L122.089 141.346L84.7059 178.423C124.593 175.006 155.92 141.627 155.92 100.929C155.92 57.9615 121.016 23.1285 77.9601 23.1285L77.9345 23.103Z" fill="white"/>
<path d="M701.947 50.235C725.277 50.235 742.371 63.7499 746.332 84.5579H731.946C728.19 70.6349 716.103 62.9339 702.152 62.9339C681.735 62.9339 667.35 78.5399 667.35 103.275C667.35 128.01 680.688 143.208 701.104 143.208C716.103 143.208 728.19 134.895 732.15 121.992H746.741C741.937 142.57 724.025 156.085 701.104 156.085C672.562 156.085 653.168 135.073 653.168 103.479C653.168 71.8844 672.537 50.235 701.922 50.235H701.947ZM755.096 126.352C755.096 107.839 769.278 96.1859 792.811 94.3244L826.157 91.6214V88.3064C826.157 68.5439 814.275 62.3219 799.481 62.3219C781.977 62.3219 771.552 70.2269 771.552 83.7419H758.418C758.418 63.3674 775.078 50.2605 799.889 50.2605C823.219 50.2605 840.313 61.9139 840.313 88.5359V153.637H828.227L826.362 135.966C820.101 148.639 806.354 156.136 789.26 156.136C767.796 156.136 755.071 144.075 755.071 126.403L755.096 126.352ZM826.157 107.839V102.433L796.363 104.728C777.403 106.386 769.687 114.699 769.687 125.944C769.687 138.21 778.86 144.457 792.607 144.457C813.866 144.457 826.157 129.693 826.157 107.865V107.839ZM865.968 125.307C865.968 136.96 874.732 144.228 888.888 144.228C904.526 144.228 913.699 137.572 913.699 126.76C913.699 118.447 909.534 113.653 897.652 110.746L880.354 106.386C862.85 102.025 854.316 92.8709 854.316 79.1519C854.316 61.4804 869.111 50.235 890.779 50.235C912.447 50.235 925.786 61.8884 926.424 80.6054H912.473C912.064 68.9519 903.938 62.0924 890.396 62.0924C876.853 62.0924 868.318 68.1359 868.318 78.9479C868.318 86.6489 873.736 92.0549 884.774 94.7579L902.073 99.1184C919.576 103.479 927.498 111.588 927.498 126.148C927.498 144.253 912.064 156.085 889.144 156.085C866.223 156.085 852.272 144.024 852.272 125.307H866.019H865.968ZM951.823 153.612V64.9994H931.611V52.9379H951.823V21.114H965.979V52.9379H986.191V64.9994H965.979V153.586H951.823V153.612Z" fill="white"/>
<path d="M305.478 103.785C305.478 71.7569 324.233 48.8834 355.279 48.8834C369.665 48.8834 382.365 54.9269 388.829 65.1014V0H414.05V154.734H390.72L389.059 138.72C382.799 150.577 369.461 157.437 353.848 157.437C324.054 157.437 305.503 135.609 305.503 103.785H305.478ZM388.625 102.943C388.625 84.4303 377.152 71.5529 359.444 71.5529C341.737 71.5529 330.902 84.6598 330.902 102.943C330.902 121.227 341.737 134.13 359.444 134.13C377.152 134.13 388.625 121.456 388.625 102.943ZM470.188 48.6539C485.596 48.6539 497.682 55.1054 503.738 66.1214L505.195 51.9689H528.754V149.506C528.754 183.829 508.133 205.249 474.787 205.249C445.198 205.249 424.986 188.394 421.869 160.956H447.293C448.954 174.267 459.175 182.172 474.787 182.172C492.291 182.172 503.534 171.156 503.534 154.096V137.037C497.069 146.599 484.37 152.643 469.575 152.643C440.394 152.643 421.23 130.815 421.23 101.056C421.23 71.2979 440.828 48.6539 470.214 48.6539H470.188ZM474.583 130.611C492.086 130.611 502.921 118.345 502.921 100.444C502.921 82.5433 492.291 70.9154 474.583 70.9154C456.875 70.9154 446.859 83.5888 446.859 100.444C446.859 117.3 457.897 130.611 474.583 130.611ZM289.584 63.3674C287.157 60.9449 284.551 58.7774 281.816 56.8904C260.225 41.9729 230.584 43.9364 211.573 62.8829C205.006 69.4364 200.483 77.2648 197.979 85.5778C193.252 101.311 195.807 118.906 205.568 132.982C207.459 135.711 209.631 138.312 212.059 140.734C214.486 143.157 217.246 145.452 220.057 147.364C241.623 162.129 271.136 160.114 290.07 141.219C296.611 134.691 301.134 126.888 303.638 118.6L283.963 112.455C282.379 117.657 279.542 122.527 275.454 126.633C264.543 137.521 248.036 139.485 234.928 132.549L296.228 71.3744C294.312 68.5694 292.088 65.8919 289.584 63.3929V63.3674ZM220.235 118.371C216.53 110.415 215.074 100.495 217.68 91.7233C219.239 86.4958 222.101 81.5743 226.215 77.4688C237.202 66.5039 253.862 64.5914 266.996 71.6804L220.235 118.345V118.371ZM632.471 63.3674C630.043 60.9449 627.437 58.7774 624.703 56.8904C603.111 41.9729 573.471 43.9364 554.46 62.8829C547.893 69.4364 543.37 77.2648 540.866 85.5778C536.139 101.311 538.694 118.906 548.455 132.982C550.346 135.711 552.518 138.312 554.945 140.734C557.449 143.233 560.132 145.452 562.943 147.364C584.509 162.129 614.022 160.114 632.956 141.219C639.498 134.691 644.02 126.888 646.525 118.6L626.849 112.455C625.265 117.657 622.429 122.527 618.34 126.633C607.43 137.521 590.923 139.485 577.814 132.549L639.114 71.3744C637.198 68.5694 634.975 65.8919 632.471 63.3929V63.3674ZM563.096 118.371C559.391 110.415 557.935 100.495 560.541 91.7233C562.1 86.4958 564.962 81.5743 569.076 77.4688C580.063 66.5039 596.723 64.5914 609.857 71.6804L563.096 118.345V118.371Z" fill="white"/>
</svg>
