<?xml version="1.0" encoding="iso-8859-1"?>
<!-- Uploaded to: SVG Repo, www.svgrepo.com, Generator: SVG Repo Mixer Tools -->
<svg version="1.1" id="Layer_1" xmlns="http://www.w3.org/2000/svg" xmlns:xlink="http://www.w3.org/1999/xlink" 
	 viewBox="0 0 511.999 511.999" xml:space="preserve">
<path style="fill:#111449;" d="M62.327,324.285c72.338,72.337,189.618,72.337,261.956,0l-112.595-149.36L62.327,62.329
	C-10.011,134.667-10.011,251.949,62.327,324.285z"/>
<path style="fill:#2F5E88;" d="M62.327,62.329l261.956,261.956c72.338-72.337,72.338-189.618,0-261.956
	C251.945-10.007,134.663-10.007,62.327,62.329z"/>
<path style="fill:#78E3EC;" d="M93.148,93.152L293.46,293.464c55.314-55.314,55.314-144.998,0-200.312S148.463,37.837,93.148,93.152
	z"/>
<path style="fill:#D0FBFD;" d="M274.913,111.699C219.598,56.385,138.22,48.08,93.148,93.152
	c-55.314,55.314-55.314,144.998,0,200.312s144.998,55.314,200.312,0C338.532,248.392,330.227,167.014,274.913,111.699z"/>
<polygon style="fill:#FF754F;" points="370.509,339.689 503.833,473.013 488.424,488.421 414.058,429.464 355.101,355.098 "/>
<rect x="319.791" y="418.57" transform="matrix(0.7071 0.7071 -0.7071 0.7071 424.9543 -167.0002)" style="fill:#FF4719;" width="188.546" height="21.791"/>
<path style="fill:#2F5E88;" d="M289.983,209.651c0.892-5.318,1.382-10.772,1.382-16.343s-0.489-11.025-1.382-16.343h-33.364
	c-1.544-5.997-3.929-11.654-7.003-16.855l23.6-23.6c-6.362-8.934-14.178-16.751-23.113-23.113l-23.6,23.6
	c-5.202-3.074-10.857-5.459-16.855-7.003V96.63c-5.318-0.892-10.772-1.382-16.343-1.382c-5.571,0-11.026,0.489-16.343,1.382v33.364
	c-5.997,1.544-11.654,3.929-16.855,7.003l-23.6-23.6c-8.934,6.362-16.751,14.178-23.113,23.113l23.6,23.6
	c-3.074,5.202-5.459,10.857-7.003,16.855H96.626c-0.892,5.318-1.382,10.772-1.382,16.343c0,5.572,0.489,11.025,1.382,16.343h33.364
	c1.544,5.997,3.929,11.654,7.003,16.855l-23.6,23.6c6.362,8.934,14.178,16.751,23.113,23.113l23.6-23.6
	c5.202,3.074,10.857,5.459,16.855,7.003v33.364c5.317,0.892,10.772,1.382,16.343,1.382c5.571,0,11.026-0.489,16.343-1.382v-33.364
	c5.997-1.544,11.654-3.929,16.855-7.001l23.6,23.6c8.934-6.362,16.751-14.178,23.113-23.113l-23.6-23.6
	c3.074-5.202,5.459-10.857,7.003-16.855h33.364V209.651z M193.304,225.995c-18.053,0-32.687-14.634-32.687-32.687
	s14.634-32.687,32.687-32.687c18.052,0,32.687,14.634,32.687,32.687S211.357,225.995,193.304,225.995z"/>
<path d="M509.605,467.232L376.282,333.908c-3.191-3.191-8.366-3.191-11.556,0l-9.631,9.631l-19.392-19.392
	c69.694-75.774,67.82-194.126-5.647-267.593c-75.405-75.405-198.097-75.405-273.502,0s-75.405,198.097,0,273.502
	c37.703,37.703,87.226,56.553,136.751,56.553c46.982,0,93.954-16.977,130.842-50.906l19.392,19.392l-9.631,9.631
	c-3.191,3.191-3.191,8.366,0,11.557l133.322,133.323c1.595,1.595,3.687,2.394,5.778,2.394s4.183-0.798,5.778-2.394l30.817-30.817
	C512.796,475.597,512.796,470.423,509.605,467.232z M68.109,318.499c-69.032-69.033-69.032-181.357,0-250.39
	c34.516-34.516,79.856-51.775,125.195-51.775s90.679,17.259,125.195,51.775c69.032,69.033,69.032,181.357,0,250.39
	C249.466,387.532,137.141,387.532,68.109,318.499z M473.009,492.271L351.243,370.503l19.261-19.261L492.27,473.009L473.009,492.271z
	"/>
<path d="M193.304,152.446c-22.53,0-40.858,18.328-40.858,40.858s18.328,40.858,40.858,40.858s40.858-18.328,40.858-40.858
	S215.833,152.446,193.304,152.446z M193.304,217.82c-13.518,0-24.515-10.997-24.515-24.515c0-13.518,10.997-24.515,24.515-24.515
	s24.515,10.997,24.515,24.515C217.819,206.822,206.821,217.82,193.304,217.82z"/>
<path d="M259.671,161.606l19.321-19.321c2.822-2.821,3.192-7.267,0.878-10.519c-6.908-9.701-15.33-18.123-25.03-25.029
	c-3.25-2.315-7.697-1.943-10.517,0.878l-19.321,19.321c-2.346-1.124-4.743-2.121-7.183-2.986V96.626
	c0-3.991-2.883-7.398-6.818-8.059c-5.906-0.992-11.861-1.495-17.697-1.495c-5.836,0-11.79,0.502-17.697,1.495
	c-3.935,0.66-6.818,4.067-6.818,8.059v27.324c-2.441,0.865-4.838,1.862-7.183,2.986l-19.321-19.321
	c-2.822-2.822-7.267-3.192-10.517-0.879c-9.701,6.908-18.123,15.329-25.03,25.03c-2.314,3.25-1.943,7.697,0.879,10.517
	l19.321,19.321c-1.124,2.346-2.121,4.743-2.986,7.183H96.626c-3.991,0-7.398,2.883-8.058,6.818
	c-0.992,5.906-1.495,11.861-1.495,17.697c0,5.835,0.502,11.789,1.495,17.697c0.66,3.935,4.067,6.818,8.058,6.818h27.325
	c0.865,2.441,1.862,4.838,2.986,7.183l-19.321,19.321c-2.822,2.821-3.192,7.267-0.878,10.519c6.908,9.7,15.329,18.121,25.029,25.029
	c3.251,2.315,7.697,1.943,10.519-0.878l19.321-19.321c2.345,1.124,4.743,2.121,7.183,2.986v27.325c0,3.991,2.883,7.398,6.818,8.059
	c5.906,0.991,11.861,1.495,17.697,1.495c5.836,0,11.79-0.502,17.697-1.495c3.935-0.66,6.818-4.067,6.818-8.059v-27.325
	c2.441-0.865,4.838-1.861,7.183-2.986l19.321,19.321c2.821,2.822,7.267,3.192,10.517,0.878c9.701-6.908,18.123-15.329,25.03-25.03
	c2.314-3.25,1.943-7.697-0.878-10.517l-19.321-19.321c1.124-2.345,2.121-4.743,2.986-7.183h27.325c3.991,0,7.398-2.883,8.058-6.818
	c0.991-5.906,1.495-11.861,1.495-17.697c0-5.836-0.502-11.79-1.495-17.697c-0.66-3.935-4.067-6.818-8.058-6.818h-27.327
	C261.793,166.349,260.796,163.951,259.671,161.606z M283.192,193.305c0,2.698-0.128,5.429-0.381,8.172h-26.194
	c-3.728,0-6.985,2.523-7.913,6.135c-1.323,5.139-3.383,10.097-6.123,14.734c-1.897,3.211-1.38,7.299,1.257,9.936l18.526,18.526
	c-3.496,4.197-7.36,8.061-11.557,11.557l-18.526-18.526c-2.636-2.637-6.723-3.153-9.935-1.257
	c-4.639,2.741-9.598,4.802-14.735,6.124c-3.611,0.929-6.135,4.185-6.135,7.913v26.193c-5.484,0.508-10.86,0.508-16.343,0v-26.193
	c0-3.728-2.523-6.985-6.135-7.913c-5.139-1.323-10.097-3.383-14.734-6.123c-3.212-1.897-7.299-1.38-9.936,1.257l-18.526,18.525
	c-4.197-3.496-8.059-7.359-11.556-11.556l18.525-18.526c2.637-2.637,3.154-6.724,1.257-9.935c-2.741-4.639-4.802-9.598-6.124-14.735
	c-0.929-3.611-4.185-6.135-7.913-6.135h-26.193c-0.254-2.742-0.381-5.474-0.381-8.172s0.127-5.429,0.381-8.172h26.193
	c3.728,0,6.984-2.523,7.913-6.134c1.323-5.138,3.383-10.096,6.124-14.735c1.897-3.211,1.379-7.298-1.257-9.935l-18.525-18.526
	c3.496-4.197,7.359-8.059,11.556-11.556l18.526,18.525c2.637,2.637,6.725,3.154,9.935,1.257c4.639-2.741,9.598-4.802,14.735-6.124
	c3.611-0.929,6.134-4.185,6.134-7.913V103.8c5.484-0.508,10.86-0.508,16.343,0v26.194c0,3.728,2.523,6.985,6.135,7.913
	c5.137,1.322,10.096,3.382,14.735,6.124c3.21,1.896,7.298,1.379,9.935-1.257l18.526-18.525c4.197,3.496,8.059,7.359,11.556,11.556
	l-18.525,18.526c-2.637,2.637-3.154,6.725-1.257,9.936c2.74,4.638,4.801,9.596,6.123,14.734c0.928,3.611,4.185,6.135,7.913,6.135
	h26.194C283.064,187.874,283.192,190.606,283.192,193.305z"/>
<path d="M310.748,100.292c-2.807-3.535-7.946-4.125-11.481-1.319c-3.535,2.806-4.125,7.946-1.319,11.481
	c42.123,53.061,37.709,129.253-10.267,177.229c-52.04,52.04-136.716,52.04-188.755,0s-52.04-136.716,0-188.755
	c47.976-47.977,124.168-52.389,177.229-10.267c3.533,2.806,8.674,2.215,11.481-1.319c2.807-3.535,2.215-8.675-1.319-11.481
	c-59.568-47.289-145.096-42.34-198.947,11.51c-58.412,58.412-58.412,153.456,0,211.868c29.207,29.207,67.57,43.809,105.934,43.809
	s76.727-14.603,105.934-43.809C353.088,245.387,358.037,159.859,310.748,100.292z"/>
</svg>